# xmcd
#
# Track frame offsets: 
#        150
#        10875
#        26640
#        44160
#        59560
#        74985
#        95052
#        112902
#        132542
#        146010
#        162330
#        172292
#        185785
#        203437
#
# Disc length: 2937 seconds
#
# Revision: 1
# Processed by: cddbd v1.5.2PL0 Copyright (c) Steve Scherf et al.
# Submitted via: ExactAudioCopy v0.95b4
#
DISCID=e20b770e
DTITLE=Flavium - 20 Years of Blues Power
DYEAR=1989
DGENRE=Blues
TTITLE0=Fanny Mae
TTITLE1=Just wanna Make Love To You
TTITLE2=You Don't Miss Your Water
TTITLE3=I'm Ready
TTITLE4=That's How Strong My Love Is
TTITLE5=Nobody Knows You When You're Down And Out
TTITLE6=Key To The Highway
TTITLE7=Guilty
TTITLE8=Dust My Broom
TTITLE9=Crossroads
TTITLE10=Shake Your Moneymaker
TTITLE11=Walkin' Blues
TTITLE12=First Love
TTITLE13=Nightlife
EXTD=
EXTT0=
EXTT1=
EXTT2=
EXTT3=
EXTT4=
EXTT5=
EXTT6=
EXTT7=
EXTT8=
EXTT9=
EXTT10=
EXTT11=
EXTT12=
EXTT13=
PLAYORDER=
